<mxfile host="app.diagrams.net" modified="2024-05-14T02:18:34.215Z" agent="Mozilla/5.0 (Windows NT 10.0; Win64; x64) AppleWebKit/537.36 (KHTML, like Gecko) Chrome/122.0.0.0 Safari/537.36 Edg/122.0.0.0" version="24.3.0" etag="3LNF_9-c4T5TQMvfTVcm" type="github">
  <diagram name="第 1 页" id="yYrWhbrZ3t7tgUM3Y8eL">
    <mxGraphModel>
      <root>
        <mxCell id="0" />
        <mxCell id="1" parent="0" />
      </root>
    </mxGraphModel>
  </diagram>
</mxfile>
